<svg width="10" height="10" viewBox="0 0 10 10" fill="none" xmlns="http://www.w3.org/2000/svg">
<path d="M9.70549 8.29388C10.0961 8.68448 10.0961 9.31724 9.70549 9.70784C9.51176 9.90313 9.25553 10 8.9993 10C8.74307 10 8.48746 9.90235 8.29248 9.70705L4.99961 6.4159L1.70705 9.70627C1.51176 9.90313 1.25584 10 0.999922 10C0.744004 10 0.488399 9.90313 0.292946 9.70627C-0.0976486 9.31568 -0.0976486 8.68292 0.292946 8.29232L3.58644 4.99883L0.292946 1.7069C-0.0976486 1.3163 -0.0976486 0.68354 0.292946 0.292946C0.68354 -0.0976486 1.3163 -0.0976486 1.7069 0.292946L4.99961 3.588L8.2931 0.294508C8.6837 -0.0960862 9.31646 -0.0960862 9.70705 0.294508C10.0976 0.685103 10.0976 1.31787 9.70705 1.70846L6.41356 5.00195L9.70549 8.29388Z" fill="#0F0F0F"/>
</svg>
