<svg width="44" height="51" viewBox="0 0 44 51" fill="none" xmlns="http://www.w3.org/2000/svg">
<g clip-path="url(#clip0_55_440)">
<path d="M22.0098 13.8482C15.7634 13.8482 10.725 18.8866 10.725 25.133C10.725 31.3795 15.7634 36.4179 22.0098 36.4179C28.2563 36.4179 33.2947 31.3795 33.2947 25.133C33.2947 18.8866 28.2563 13.8482 22.0098 13.8482ZM22.0098 32.4696C17.9732 32.4696 14.6732 29.1795 14.6732 25.133C14.6732 21.0866 17.9634 17.7964 22.0098 17.7964C26.0563 17.7964 29.3464 21.0866 29.3464 25.133C29.3464 29.1795 26.0464 32.4696 22.0098 32.4696V32.4696ZM36.3884 13.3866C36.3884 14.85 35.2098 16.0188 33.7563 16.0188C32.2929 16.0188 31.1241 14.8402 31.1241 13.3866C31.1241 11.933 32.3027 10.7545 33.7563 10.7545C35.2098 10.7545 36.3884 11.933 36.3884 13.3866ZM43.8625 16.058C43.6956 12.5321 42.8902 9.40893 40.3072 6.83572C37.7339 4.2625 34.6107 3.45714 31.0848 3.28036C27.4509 3.07411 16.5589 3.07411 12.925 3.28036C9.40894 3.44732 6.28573 4.25268 3.70269 6.82589C1.11965 9.39911 0.324118 12.5223 0.147333 16.0482C-0.0589172 19.6821 -0.0589172 30.5741 0.147333 34.208C0.314297 37.7339 1.11965 40.8571 3.70269 43.4304C6.28573 46.0036 9.39912 46.8089 12.925 46.9857C16.5589 47.192 27.4509 47.192 31.0848 46.9857C34.6107 46.8188 37.7339 46.0134 40.3072 43.4304C42.8804 40.8571 43.6857 37.7339 43.8625 34.208C44.0688 30.5741 44.0688 19.692 43.8625 16.058V16.058ZM39.1679 38.1071C38.4018 40.0321 36.9188 41.5152 34.9839 42.2911C32.0866 43.4402 25.2116 43.175 22.0098 43.175C18.808 43.175 11.9232 43.4304 9.03573 42.2911C7.11073 41.525 5.62769 40.042 4.8518 38.1071C3.70269 35.2098 3.96787 28.3348 3.96787 25.133C3.96787 21.9313 3.71251 15.0464 4.8518 12.1589C5.61787 10.2339 7.1009 8.75089 9.03573 7.975C11.933 6.82589 18.808 7.09107 22.0098 7.09107C25.2116 7.09107 32.0964 6.83572 34.9839 7.975C36.9089 8.74107 38.392 10.2241 39.1679 12.1589C40.317 15.0563 40.0518 21.9313 40.0518 25.133C40.0518 28.3348 40.317 35.2196 39.1679 38.1071Z" fill="#0F0F0F"/>
</g>
<defs>
<clipPath id="clip0_55_440">
<rect width="44" height="50.2857" fill="white"/>
</clipPath>
</defs>
</svg>
