<svg width="10" height="10" viewBox="0 0 10 10" fill="none" xmlns="http://www.w3.org/2000/svg">
<path d="M9.77148 8.66599L7.43359 6.3281C7.96523 5.53885 8.22754 4.55272 8.08711 3.50194C7.84765 1.71464 6.38281 0.260149 4.59375 0.0336455C1.93379 -0.302936 -0.302929 1.93378 0.0336722 4.59373C0.260235 6.38357 1.71492 7.84959 3.50242 8.08787C4.5532 8.22828 5.53953 7.96607 6.32859 7.43435L8.66648 9.77224C8.97156 10.0773 9.46628 10.0773 9.77136 9.77224C10.0762 9.46677 10.0762 8.97068 9.77148 8.66599ZM1.54492 4.06248C1.54492 2.68397 2.66641 1.56249 4.04492 1.56249C5.42344 1.56249 6.54492 2.68397 6.54492 4.06248C6.54492 5.441 5.42344 6.56248 4.04492 6.56248C2.66641 6.56248 1.54492 5.44139 1.54492 4.06248Z" fill="#0F0F0F"/>
</svg>
